<?xml version="1.0" encoding="UTF-8"?>
<svg width="24px" height="24px" viewBox="0 0 24 24" version="1.1" xmlns="http://www.w3.org/2000/svg" xmlns:xlink="http://www.w3.org/1999/xlink">
    <!-- Generator: Sketch 56.2 (81672) - https://sketch.com -->
    <title>Image@2x</title>
    <desc>Created with Sketch.</desc>
    <defs>
        <rect id="path-1" x="4" y="3" width="17" height="18" rx="8.5"></rect>
        <path d="M11.5384615,1.5 C11.5384615,0.95 11.1230769,0.5 10.6153846,0.5 L1.38461538,0.5 C0.876923077,0.5 0.461538462,0.95 0.461538462,1.5 L0.461538462,9.5 C0.461538462,10.05 0.876923077,10.5 1.38461538,10.5 L10.6153846,10.5 C11.1230769,10.5 11.5384615,10.05 11.5384615,9.5 L11.5384615,1.5 Z M9.13846154,8.5 L2.44615385,8.5 C2.16923077,8.5 2.00769231,8.175 2.14615385,7.925 L4.17692308,4.1 C4.26923077,3.925 4.47692308,3.925 4.56923077,4.1 L5.79230769,6.375 C5.88461538,6.525 6.09230769,6.55 6.18461538,6.4 L7.17692308,4.85 C7.26923077,4.7 7.47692308,4.7 7.56923077,4.85 L9.39230769,8 C9.53076923,8.225 9.39230769,8.5 9.13846154,8.5 Z M8.53846154,4 C8.03076923,4 7.61538462,3.55 7.61538462,3 C7.61538462,2.45 8.03076923,2 8.53846154,2 C9.04615385,2 9.46153846,2.45 9.46153846,3 C9.46153846,3.55 9.04615385,4 8.53846154,4 Z" id="path-3"></path>
    </defs>
    <g id="Image" stroke="none" stroke-width="1" fill="none" fill-rule="evenodd">
        <path d="M17.5135135,18 L6.48648649,18 C6.21621622,18 6,17.7837838 6,17.5135135 L6,6.48648649 C6,6.21621622 6.21621622,6 6.48648649,6 L17.5135135,6 C17.7837838,6 18,6.21621622 18,6.48648649 L18,17.5135135 C18,17.7837838 17.7837838,18 17.5135135,18 Z M7.02702703,16.972973 L16.972973,16.972973 L16.972973,7.02702703 L7.02702703,7.02702703 L7.02702703,16.972973 Z M15.2432432,10.4864865 L8.75675676,10.4864865 C8.59459459,10.4864865 8.48648649,10.3783784 8.48648649,10.2702703 L8.48648649,8.75675676 C8.48648649,8.59459459 8.59459459,8.48648649 8.75675676,8.48648649 L15.2432432,8.48648649 C15.4054054,8.48648649 15.5135135,8.59459459 15.5135135,8.75675676 L15.5135135,10.2702703 C15.5135135,10.3783784 15.4054054,10.4864865 15.2432432,10.4864865 L15.2432432,10.4864865 Z M10.2702703,15.5135135 L8.75675676,15.5135135 C8.59459459,15.5135135 8.48648649,15.4054054 8.48648649,15.2432432 L8.48648649,12.2702703 C8.48648649,12.1081081 8.59459459,12 8.75675676,12 L10.2702703,12 C10.3783784,12 10.4864865,12.1081081 10.4864865,12.2702703 L10.4864865,15.2432432 C10.4864865,15.4054054 10.3783784,15.5135135 10.2702703,15.5135135 Z M15.2432432,15.5135135 L12.2702703,15.5135135 C12.1081081,15.5135135 12,15.4054054 12,15.2432432 L12,12.2702703 C12,12.1081081 12.1081081,12 12.2702703,12 L15.2432432,12 C15.4054054,12 15.5135135,12.1081081 15.5135135,12.2702703 L15.5135135,15.2432432 C15.5135135,15.4054054 15.4054054,15.5135135 15.2432432,15.5135135 Z" id="Shape" fill="#FFFFFF" fill-rule="nonzero"></path>
        <g id="orange" transform="translate(2.000000, 2.000000)" fill="#F5A623">
            <rect x="0" y="0" width="20" height="20" rx="2"></rect>
        </g>
        <g id="blue" transform="translate(2.000000, 2.000000)" fill="#4A90E2">
            <g id="green">
                <rect x="0" y="0" width="20" height="20" rx="2"></rect>
            </g>
        </g>
        <g id="green" transform="translate(2.000000, 2.000000)" fill="#6BBD6E">
            <rect x="0" y="0" width="20" height="20" rx="2"></rect>
        </g>
        <mask id="mask-2" fill="white">
            <use xlink:href="#path-1"></use>
        </mask>
        <g id="Mask"></g>
        <g id="Icon" mask="url(#mask-2)">
            <g transform="translate(6.000000, 6.000000)">
                <mask id="mask-4" fill="white">
                    <use xlink:href="#path-3"></use>
                </mask>
                <use id="Mask" stroke="none" fill="#000000" fill-rule="evenodd" xlink:href="#path-3"></use>
                <g id="z-nested-/-Icon-Color-/-PALETTE_GRAY_1" stroke="none" fill="none" mask="url(#mask-4)" fill-rule="evenodd">
                    <g transform="translate(0.000000, -1.000000)" id="z-nested-/-Color-Tokens-/-PALETTE_GRAY_1">
                        <g>
                            <rect id="Rectangle" fill="#FFFFFF" x="0" y="0" width="12" height="13"></rect>
                        </g>
                    </g>
                </g>
            </g>
        </g>
    </g>
</svg>